<svg xmlns="http://www.w3.org/2000/svg" xmlns:xlink="http://www.w3.org/1999/xlink" width="351" height="347" version="1.1" viewBox="0 0 351 347"><title>left-swoosh</title><desc>Created with Sketch.</desc><defs><linearGradient id="linearGradient-1" x1="82.179%" x2="34.613%" y1="-.474%" y2="114.441%"><stop offset="0%" stop-color="#2B3990"/><stop offset="16%" stop-color="#1E62A7"/><stop offset="32%" stop-color="#1485BC"/><stop offset="49%" stop-color="#0BA1CC"/><stop offset="66%" stop-color="#05B4D7"/><stop offset="83%" stop-color="#01C0DE"/><stop offset="100%" stop-color="#00C4E0"/></linearGradient><linearGradient id="linearGradient-2" x1="-31668%" x2="-19806%" y1="78954%" y2="78954%"><stop offset="0%" stop-color="#2B3990"/><stop offset="16%" stop-color="#1E62A7"/><stop offset="32%" stop-color="#1485BC"/><stop offset="49%" stop-color="#0BA1CC"/><stop offset="66%" stop-color="#05B4D7"/><stop offset="83%" stop-color="#01C0DE"/><stop offset="100%" stop-color="#00C4E0"/></linearGradient></defs><g id="Home-page" fill="none" fill-rule="evenodd" stroke="none" stroke-width="1"><g id="Desktop" transform="translate(0.000000, -1444.000000)"><g id="Supported-Providers" transform="translate(-165.000000, 1240.000000)"><g id="Group-8"><g id="Group" transform="translate(258.000000, 275.500000) scale(-1, 1) translate(-258.000000, -275.500000)"><path id="Shape" fill="url(#linearGradient-1)" d="M0,548.248159 C249.082315,572.85553 449.085037,426.021427 498.975863,363.10217 C548.866689,300.182914 473.219217,0 473.219217,0 C391.217087,200.774538 242.119232,505.075558 0,548.349424 L0,548.248159 Z" style="mix-blend-mode:multiply"/><path id="Shape" fill="url(#linearGradient-2)" d="M113.4,466.741957 C258.702535,472.147621 369.301418,379.812119 395.962744,341.533259 C422.624069,303.254399 381.804194,130.847495 381.804194,130.847495 C341.423606,250.278889 229.067576,424.307493 113.4,466.741957 Z" style="mix-blend-mode:multiply"/></g></g></g></g></g></svg>